My upload speed is slow so give it some time, be patient, and SEED!

Thanks to nalanchen for encoding the video. Could not get a hold of the raw blu-ray just yet. Limited Edition and very expensive so this will do. I don't think the video could get much better and certainly not at this file size anyway.

Some episodes do not have chapters. Sorry for this I would have to download the series again just to get them.


G:Ergo ProxyS01E01 - Awakening.mkv
   General
      Unique ID : 186443969878087381419234729735513250519 (0x8C43CD6D9DCE8F8A83B6B23A5B491AD7)
      Complete name : G:Ergo ProxyS01E01 - Awakening.mkv
      Format : Matroska
      Format version : Version 4 / Version 2
      File size : 790 MiB
      Duration : 25mn 48s
      Overall bit rate : 4 282 Kbps
      Encoded date : UTC 2010-02-22 21:41:31
      Writing application : mkvmerge v5.9.0 ('On The Loose') built on Dec  9 2012 15:37:01
      Writing library : libebml v1.3.0 + libmatroska v1.4.0
      Attachment : Yes / Yes
   Video #1
      ID : 1
      Format : AVC
      Format/Info : Advanced Video Codec
      Format profile : High 10@L5.0
      Format settings, CABAC : Yes
      Format settings, ReFrames : 5 frames
      Muxing mode : Header stripping
      Codec ID : V_MPEG4/ISO/AVC
      Duration : 25mn 48s
      Bit rate : 2 917 Kbps
      Width : 1 920 pixels
      Height : 1 080 pixels
      Display aspect ratio : 16:9
      Frame rate mode : Constant
      Frame rate : 23.976 fps
      Color space : YUV
      Chroma subsampling : 4:2:0
      Bit depth : 10 bits
      Scan type : Progressive
      Bits/(Pixel*Frame) : 0.059
      Stream size : 538 MiB (68%)
      Title : MGRT - encoded by nalanchen
      Writing library : x264 core 128 r2216+686+32 ed27f2d tMod [10-bit@all X86]
      Encoding settings : cabac=1 / ref=5 / deblock=1:0:0 / analyse=0x3:0x133 / me=umh / subme=9 / psy=1 / fade_compensate=0.00 / psy_rd=1.00:0.00 / mixed_ref=1 / me_range=32 / chroma_me=1 / trellis=1 / 8x8dct=1 / cqm=0 / deadzone=21,11 / fast_pskip=1 / chroma_qp_offset=-2 / threads=12 / lookahead_threads=2 / sliced_threads=0 / slices=4 / nr=0 / decimate=1 / interlaced=0 / bluray_compat=0 / constrained_intra=0 / fgo=0 / bframes=5 / b_pyramid=2 / b_adapt=2 / b_bias=0 / direct=3 / weightb=1 / open_gop=0 / weightp=2 / keyint=230 / keyint_min=23 / scenecut=40 / intra_refresh=0 / rc_lookahead=50 / rc=crf / mbtree=1 / crf=18.0000 / qcomp=0.60 / qpmin=0 / qpmax=81 / qpstep=4 / vbv_maxrate=25000 / vbv_bufsize=15000 / crf_max=0.0 / nal_hrd=none / ip_ratio=1.40 / aq=1:1.00
      Default : Yes
      Forced : No
      Color primaries : BT.709
      Transfer characteristics : BT.709
      Matrix coefficients : YCgCo
   Audio #2
      ID : 2
      Format : AC-3
      Format/Info : Audio Coding 3
      Mode extension : CM (complete main)
      Format settings, Endianness : Big
      Muxing mode : Header stripping
      Codec ID : A_AC3
      Duration : 25mn 48s
      Bit rate mode : Constant
      Bit rate : 640 Kbps
      Channel(s) : 6 channels
      Channel positions : Front: L C R, Side: L R, LFE
      Sampling rate : 48.0 KHz
      Bit depth : 16 bits
      Compression mode : Lossy
      Stream size : 118 MiB (15%)
      Title : 5.1ch
      Language : English
      Default : No
      Forced : No
   Audio #3
      ID : 3
      Format : AC-3
      Format/Info : Audio Coding 3
      Mode extension : CM (complete main)
      Format settings, Endianness : Big
      Muxing mode : Header stripping
      Codec ID : A_AC3
      Duration : 25mn 48s
      Bit rate mode : Constant
      Bit rate : 640 Kbps
      Channel(s) : 6 channels
      Channel positions : Front: L C R, Side: L R, LFE
      Sampling rate : 48.0 KHz
      Bit depth : 16 bits
      Compression mode : Lossy
      Stream size : 118 MiB (15%)
      Title : 5.1ch
      Language : Japanese
      Default : No
      Forced : No
   Text #4
      ID : 4
      Format : ASS
      Codec ID : S_TEXT/ASS
      Codec ID/Info : Advanced Sub Station Alpha
      Compression mode : Lossless
      Title : Titles and Signs
      Language : English
      Default : Yes
      Forced : No
   Text #5
      ID : 5
      Format : ASS
      Codec ID : S_TEXT/ASS
      Codec ID/Info : Advanced Sub Station Alpha
      Compression mode : Lossless
      Title : Subtitles
      Language : English
      Default : No
      Forced : No